# xmcd
#
# Track frame offsets:
#	150
#	9418
#	35105
#	50016
#	61218
#	69605
#	81692
#	94186
#	127840
#	137084
#	161725
#	173955
#	188767
#	197547
#	216099
#	224988
#	235010
#	248654
#	261011
#	275257
#	288108
#
# Disc length: 4124 seconds
#
# Revision: 0
# Processed by: cddbd v1.5.1PL0 Copyright (c) Steve Scherf et al.
# Submitted via: dBpowerAMP V4.0
#
DISCID=3c101a15
DTITLE=Jonathan Richman and The Modern Lovers - Roadrunner, Roadrunner The Beserkley Collection [CD2]
DYEAR=2004
DGENRE=AlternRock
TTITLE0=The Sweeping Wind (Ewa Ti Feng)
TTITLE1=Dodge Veg-O-Matic (Extended Version)
TTITLE2=Fly Into The Mystery
TTITLE3=The Wheels On The Bus
TTITLE4=Angels Watching Over Me
TTITLE5=I'm A Little Airplane
TTITLE6=Hey There Little Insect
TTITLE7=Ice Cream Man
TTITLE8=I'm A Little Dinosaur
TTITLE9=The Morning Of Our Lives
TTITLE10=Chapel Of Love
TTITLE11=Abdul And Cleopatra
TTITLE12=Lover Please
TTITLE13=Affection
TTITLE14=Buzz Buzz Buzz
TTITLE15=Back In Your Life
TTITLE16=Party In The Woods Tonight
TTITLE17=I'm Nature's Mosquito
TTITLE18=Lydia
TTITLE19=I Hear You Calling Me
TTITLE20=Roadrunner (Once)
EXTD=
EXTT0=
EXTT1=
EXTT2=
EXTT3=
EXTT4=
EXTT5=
EXTT6=
EXTT7=
EXTT8=
EXTT9=
EXTT10=
EXTT11=
EXTT12=
EXTT13=
EXTT14=
EXTT15=
EXTT16=
EXTT17=
EXTT18=
EXTT19=
EXTT20=
PLAYORDER=
